<svg width="126" height="42" viewBox="0 0 126 42" fill="none" xmlns="http://www.w3.org/2000/svg">
<path d="M0 27.4616C0 19.4322 6.50909 12.9231 14.5385 12.9231V12.9231C22.5678 12.9231 29.0769 19.4322 29.0769 27.4616V42H0V27.4616Z" fill="url(#paint0_linear_64_1344)"/>
<path d="M12.9231 14.5385C12.9231 6.5091 19.4322 0 27.4616 0V0C35.4909 0 42 6.50909 42 14.5385V29.0769H12.9231V14.5385Z" fill="#3D5BF6"/>
<path d="M59.224 27.5V14.9H61.528V20.138H67.18V14.9H69.484V27.5H67.18V22.01H61.528V27.5H59.224ZM76.163 27.716C75.299 27.716 74.519 27.518 73.823 27.122C73.139 26.726 72.593 26.18 72.185 25.484C71.789 24.776 71.591 23.96 71.591 23.036C71.591 22.112 71.795 21.302 72.203 20.606C72.611 19.898 73.157 19.346 73.841 18.95C74.537 18.554 75.317 18.356 76.181 18.356C77.033 18.356 77.801 18.554 78.485 18.95C79.181 19.346 79.727 19.898 80.123 20.606C80.531 21.302 80.735 22.112 80.735 23.036C80.735 23.96 80.531 24.776 80.123 25.484C79.727 26.18 79.181 26.726 78.485 27.122C77.789 27.518 77.015 27.716 76.163 27.716ZM76.163 25.718C76.763 25.718 77.285 25.496 77.729 25.052C78.173 24.596 78.395 23.924 78.395 23.036C78.395 22.148 78.173 21.482 77.729 21.038C77.285 20.582 76.769 20.354 76.181 20.354C75.569 20.354 75.041 20.582 74.597 21.038C74.165 21.482 73.949 22.148 73.949 23.036C73.949 23.924 74.165 24.596 74.597 25.052C75.041 25.496 75.563 25.718 76.163 25.718ZM86.4214 27.5C85.4854 27.5 84.7354 27.272 84.1714 26.816C83.6074 26.36 83.3254 25.55 83.3254 24.386V20.498H81.7954V18.572H83.3254L83.5954 16.178H85.6294V18.572H88.0414V20.498H85.6294V24.404C85.6294 24.836 85.7194 25.136 85.8994 25.304C86.0914 25.46 86.4154 25.538 86.8714 25.538H87.9874V27.5H86.4214ZM94.1291 27.716C93.2291 27.716 92.4311 27.524 91.7351 27.14C91.0391 26.756 90.4931 26.216 90.0971 25.52C89.7011 24.824 89.5031 24.02 89.5031 23.108C89.5031 22.184 89.6951 21.362 90.0791 20.642C90.4751 19.922 91.0151 19.364 91.6991 18.968C92.3951 18.56 93.2111 18.356 94.1471 18.356C95.0231 18.356 95.7971 18.548 96.4691 18.932C97.1411 19.316 97.6631 19.844 98.0351 20.516C98.4191 21.176 98.6111 21.914 98.6111 22.73C98.6111 22.862 98.6051 23 98.5931 23.144C98.5931 23.288 98.5871 23.438 98.5751 23.594H91.7891C91.8371 24.29 92.0771 24.836 92.5091 25.232C92.9531 25.628 93.4871 25.826 94.1111 25.826C94.5791 25.826 94.9691 25.724 95.2811 25.52C95.6051 25.304 95.8451 25.028 96.0011 24.692H98.3411C98.1731 25.256 97.8911 25.772 97.4951 26.24C97.1111 26.696 96.6311 27.056 96.0551 27.32C95.4911 27.584 94.8491 27.716 94.1291 27.716ZM94.1471 20.228C93.5831 20.228 93.0851 20.39 92.6531 20.714C92.2211 21.026 91.9451 21.506 91.8251 22.154H96.2711C96.2351 21.566 96.0191 21.098 95.6231 20.75C95.2271 20.402 94.7351 20.228 94.1471 20.228ZM100.549 27.5V14.54H102.853V27.5H100.549ZM106.323 31.46L108.393 26.906H107.853L104.379 18.572H106.881L109.383 24.854L111.993 18.572H114.441L108.771 31.46H106.323ZM115.947 27.5V18.572H117.981L118.161 20.084C118.437 19.556 118.833 19.136 119.349 18.824C119.877 18.512 120.495 18.356 121.203 18.356C122.307 18.356 123.165 18.704 123.777 19.4C124.389 20.096 124.695 21.116 124.695 22.46V27.5H122.391V22.676C122.391 21.908 122.235 21.32 121.923 20.912C121.611 20.504 121.125 20.3 120.465 20.3C119.817 20.3 119.283 20.528 118.863 20.984C118.455 21.44 118.251 22.076 118.251 22.892V27.5H115.947Z" fill="#3D5BF6"/>
<defs>
<linearGradient id="paint0_linear_64_1344" x1="14.5385" y1="-10.5" x2="14.5385" y2="42" gradientUnits="userSpaceOnUse">
<stop stop-color="#3F6DF6"/>
<stop offset="1" stop-color="#3F6DF6" stop-opacity="0"/>
</linearGradient>
</defs>
</svg>
