<?xml version="1.0" encoding="UTF-8"?>
<svg xmlns="http://www.w3.org/2000/svg" xmlns:xlink="http://www.w3.org/1999/xlink" width="px" height="20px" viewBox="0 0 20 20" version="1.1">
<g id="surface1">
<path style=" stroke:none;fill-rule:evenodd;fill:rgb(65.490196%,68.235294%,75.686275%);fill-opacity:1;" d="M 2.503906 16.328125 L 2.503906 17.710938 C 2.503906 19.34375 2.367188 19.929688 4.355469 19.929688 L 15.492188 19.929688 C 17.476562 19.929688 17.34375 19.339844 17.34375 17.710938 L 17.34375 16.328125 Z M 2.503906 16.328125 "/>
<path style=" stroke:none;fill-rule:evenodd;fill:rgb(65.490196%,68.235294%,75.686275%);fill-opacity:1;" d="M 5 3.75 L 6.167969 3.75 L 6.167969 7.589844 L 5 7.589844 Z M 5 3.75 "/>
<path style=" stroke:none;fill-rule:evenodd;fill:rgb(65.490196%,68.235294%,75.686275%);fill-opacity:1;" d="M 8.75 3.75 L 10 3.75 L 10 7.460938 L 8.75 7.460938 Z M 8.75 3.75 "/>
<path style=" stroke:none;fill-rule:evenodd;fill:rgb(65.490196%,68.235294%,75.686275%);fill-opacity:1;" d="M 13.75 3.75 L 14.988281 3.75 L 14.988281 7.3125 L 13.75 7.3125 Z M 13.75 3.75 "/>
<path style=" stroke:none;fill-rule:evenodd;fill:rgb(65.490196%,68.235294%,75.686275%);fill-opacity:1;" d="M 6.207031 1.21875 C 6.332031 1.726562 6.132812 2.308594 5.660156 2.363281 C 5.21875 2.414062 4.878906 1.839844 5.21875 1.273438 C 5.566406 0.699219 5.660156 0.0742188 5.660156 0.0742188 C 5.660156 0.0742188 6.058594 0.609375 6.207031 1.21875 Z M 6.207031 1.21875 "/>
<path style=" stroke:none;fill-rule:evenodd;fill:rgb(65.490196%,68.235294%,75.686275%);fill-opacity:1;" d="M 9.921875 1.277344 C 10.054688 1.808594 9.847656 2.421875 9.335938 2.480469 C 8.859375 2.53125 8.496094 1.929688 8.863281 1.335938 C 9.238281 0.730469 9.335938 0.0742188 9.335938 0.0742188 C 9.335938 0.0742188 9.765625 0.636719 9.921875 1.277344 Z M 9.921875 1.277344 "/>
<path style=" stroke:none;fill-rule:evenodd;fill:rgb(65.490196%,68.235294%,75.686275%);fill-opacity:1;" d="M 14.96875 1.277344 C 15.109375 1.8125 14.886719 2.421875 14.34375 2.480469 C 13.839844 2.53125 13.453125 1.929688 13.84375 1.335938 C 14.242188 0.734375 14.34375 0.078125 14.34375 0.078125 C 14.34375 0.078125 14.796875 0.640625 14.96875 1.277344 Z M 14.96875 1.277344 "/>
<path style=" stroke:none;fill-rule:evenodd;fill:rgb(65.490196%,68.235294%,75.686275%);fill-opacity:1;" d="M 3.933594 10.546875 C 4.453125 10.546875 5.203125 10.054688 5.421875 9.882812 C 5.429688 9.875 6.332031 9.027344 7.425781 9.027344 C 8.515625 9.027344 9.453125 9.867188 9.492188 9.902344 C 9.695312 10.078125 10.367188 10.546875 10.960938 10.546875 C 11.664062 10.546875 12.347656 9.914062 12.347656 9.914062 C 12.394531 9.867188 13.328125 9.027344 14.457031 9.027344 C 15.585938 9.027344 16.488281 9.875 16.527344 9.910156 C 16.726562 10.082031 17.105469 10.335938 17.449219 10.460938 C 17.410156 8.835938 16.660156 7.539062 14.726562 7.539062 L 5.324219 7.539062 C 3.585938 7.539062 2.800781 8.582031 2.632812 9.972656 C 2.914062 10.183594 3.492188 10.546875 3.933594 10.546875 Z M 3.933594 10.546875 "/>
<path style=" stroke:none;fill-rule:evenodd;fill:rgb(65.490196%,68.235294%,75.686275%);fill-opacity:1;" d="M 15.894531 11.835938 C 15.875 11.816406 15.199219 11.1875 14.457031 11.1875 C 13.707031 11.1875 13 11.820312 12.992188 11.828125 C 12.960938 11.859375 12.054688 12.703125 10.960938 12.703125 C 9.882812 12.703125 8.910156 11.871094 8.871094 11.832031 C 8.667969 11.652344 8.015625 11.1875 7.425781 11.1875 C 6.726562 11.1875 6.046875 11.816406 6.039062 11.820312 C 5.894531 11.9375 4.875 12.703125 3.933594 12.703125 C 3.453125 12.703125 2.96875 12.503906 2.597656 12.296875 L 2.597656 14.929688 L 17.457031 14.929688 L 17.457031 12.664062 C 16.695312 12.503906 15.984375 11.914062 15.894531 11.835938 Z M 15.894531 11.835938 "/>
<path style=" stroke:none;fill-rule:evenodd;fill:rgb(65.490196%,68.235294%,75.686275%);fill-opacity:1;" d="M 0 17.5 L 19.8125 17.5 L 19.8125 19.917969 L 0 19.917969 Z M 0 17.5 "/>
</g>
</svg>
