<svg width="23" height="22" viewBox="0 0 23 22" fill="none" xmlns="http://www.w3.org/2000/svg">
<path d="M15.8542 3.26343V1.83344C15.8542 1.4576 15.5425 1.14594 15.1667 1.14594C14.7909 1.14594 14.4792 1.4576 14.4792 1.83344V3.20844H8.52088V1.83344C8.52088 1.4576 8.20921 1.14594 7.83338 1.14594C7.45755 1.14594 7.14588 1.4576 7.14588 1.83344V3.26343C4.67088 3.4926 3.47005 4.96843 3.28671 7.15927C3.26838 7.4251 3.48838 7.6451 3.74505 7.6451H19.255C19.5209 7.6451 19.7409 7.41593 19.7134 7.15927C19.53 4.96843 18.3292 3.4926 15.8542 3.26343Z" fill="white"/>
<path d="M17.9167 13.7501C15.8908 13.7501 14.25 15.391 14.25 17.4168C14.25 18.1043 14.4425 18.7551 14.7817 19.3051C15.4142 20.3685 16.5783 21.0835 17.9167 21.0835C19.255 21.0835 20.4192 20.3685 21.0517 19.3051C21.3908 18.7551 21.5833 18.1043 21.5833 17.4168C21.5833 15.391 19.9425 13.7501 17.9167 13.7501ZM19.8142 17.0226L17.8617 18.8285C17.7333 18.9476 17.5592 19.0118 17.3942 19.0118C17.22 19.0118 17.0458 18.9476 16.9083 18.8101L16.0008 17.9026C15.735 17.6368 15.735 17.1968 16.0008 16.931C16.2667 16.6651 16.7067 16.6651 16.9725 16.931L17.4125 17.371L18.8792 16.0143C19.1542 15.7576 19.5942 15.776 19.8508 16.051C20.1075 16.326 20.0892 16.7568 19.8142 17.0226Z" fill="white"/>
<path d="M18.8333 9.02014H4.16667C3.6625 9.02014 3.25 9.43264 3.25 9.93681V15.5835C3.25 18.3335 4.625 20.1668 7.83333 20.1668H12.3525C12.985 20.1668 13.425 19.5526 13.2233 18.9568C13.04 18.4251 12.8842 17.8385 12.8842 17.4168C12.8842 14.6393 15.1483 12.3751 17.9258 12.3751C18.1917 12.3751 18.4575 12.3935 18.7142 12.4393C19.2642 12.5218 19.7592 12.091 19.7592 11.541V9.94598C19.75 9.43264 19.3375 9.02014 18.8333 9.02014ZM8.9425 16.6926C8.76833 16.8576 8.53 16.9585 8.29167 16.9585C8.05333 16.9585 7.815 16.8576 7.64083 16.6926C7.47583 16.5185 7.375 16.2801 7.375 16.0418C7.375 15.8035 7.47583 15.5651 7.64083 15.391C7.7325 15.3085 7.82417 15.2443 7.94333 15.1985C8.2825 15.0518 8.68583 15.1343 8.9425 15.391C9.1075 15.5651 9.20833 15.8035 9.20833 16.0418C9.20833 16.2801 9.1075 16.5185 8.9425 16.6926ZM8.9425 13.4843C8.89667 13.521 8.85083 13.5576 8.805 13.5943C8.75 13.631 8.695 13.6585 8.64 13.6768C8.585 13.7043 8.53 13.7226 8.475 13.7318C8.41083 13.741 8.34667 13.7501 8.29167 13.7501C8.05333 13.7501 7.815 13.6493 7.64083 13.4843C7.47583 13.3101 7.375 13.0718 7.375 12.8335C7.375 12.5951 7.47583 12.3568 7.64083 12.1826C7.85167 11.9718 8.1725 11.871 8.475 11.9351C8.53 11.9443 8.585 11.9626 8.64 11.9901C8.695 12.0085 8.75 12.036 8.805 12.0726C8.85083 12.1093 8.89667 12.146 8.9425 12.1826C9.1075 12.3568 9.20833 12.5951 9.20833 12.8335C9.20833 13.0718 9.1075 13.3101 8.9425 13.4843ZM12.1508 13.4843C11.9767 13.6493 11.7383 13.7501 11.5 13.7501C11.2617 13.7501 11.0233 13.6493 10.8492 13.4843C10.6842 13.3101 10.5833 13.0718 10.5833 12.8335C10.5833 12.5951 10.6842 12.3568 10.8492 12.1826C11.1975 11.8435 11.8117 11.8435 12.1508 12.1826C12.3158 12.3568 12.4167 12.5951 12.4167 12.8335C12.4167 13.0718 12.3158 13.3101 12.1508 13.4843Z" fill="white"/>
</svg>
