<?xml version="1.0" encoding="UTF-8"?>
<svg xmlns="http://www.w3.org/2000/svg" xmlns:xlink="http://www.w3.org/1999/xlink" width="px" height="20px" viewBox="0 0 20 20" version="1.1">
<g id="surface1">
<path style="fill-rule:nonzero;fill:rgb(54.117647%,55.294118%,60%);fill-opacity:1;stroke-width:1;stroke-linecap:butt;stroke-linejoin:miter;stroke:rgb(54.117647%,55.294118%,60%);stroke-opacity:1;stroke-miterlimit:4;" d="M 10 4.003906 L 10 20 L 2.998047 20 L 3.144531 45.996094 L 47.001953 45.996094 L 47.001953 7.998047 L 30.996094 7.998047 L 30.996094 27.998047 L 25.996094 27.998047 L 25.996094 4.003906 Z M 12.001953 5.996094 L 23.994141 6.005859 L 23.994141 27.998047 L 19.013672 27.998047 L 18.994141 20 L 12.001953 20 Z M 15 7.998047 L 15 10 L 17.001953 10 L 17.001953 7.998047 Z M 19.042969 7.998047 L 19.042969 10 L 20.996094 10 L 20.996094 7.998047 Z M 32.998047 10 L 45 10 L 45 44.003906 L 39.960938 44.003906 L 39.960938 40 L 37.998047 40 L 37.998047 44.003906 L 32.998047 44.003906 Z M 15 12.001953 L 15 14.003906 L 17.001953 14.003906 L 17.001953 12.001953 Z M 19.003906 12.001953 L 19.003906 14.003906 L 20.996094 14.003906 L 20.996094 12.001953 Z M 35.996094 12.001953 L 35.996094 14.003906 L 37.998047 14.003906 L 37.998047 12.001953 Z M 40.019531 12.011719 L 40.019531 14.023438 L 41.982422 14.023438 L 41.982422 12.011719 Z M 35.996094 16.015625 L 35.996094 17.998047 L 37.998047 17.998047 L 37.998047 16.015625 Z M 40.019531 16.015625 L 40.019531 17.998047 L 41.982422 17.998047 L 41.982422 16.015625 Z M 35.996094 20 L 35.996094 22.001953 L 37.998047 22.001953 L 37.998047 20 Z M 40 20 L 40 22.001953 L 41.982422 22.001953 L 41.982422 20 Z M 5.009766 22.001953 L 17.001953 22.001953 L 17.011719 27.998047 L 17.001953 27.998047 L 17.041016 44.003906 L 11.982422 44.003906 L 11.982422 40 L 10.019531 40 L 10.019531 44.003906 L 5.136719 44.003906 Z M 7.998047 24.003906 L 7.998047 26.015625 L 10.039062 26.015625 L 10.039062 24.003906 Z M 12.041016 24.003906 L 12.041016 26.015625 L 14.003906 26.015625 L 14.003906 24.003906 Z M 35.996094 24.003906 L 35.996094 25.996094 L 37.998047 25.996094 L 37.998047 24.003906 Z M 40 24.003906 L 40 25.996094 L 41.982422 25.996094 L 41.982422 24.003906 Z M 7.998047 27.988281 L 7.998047 30 L 10.039062 30 L 10.039062 27.988281 Z M 12.041016 27.988281 L 12.041016 30 L 14.003906 30 L 14.003906 27.988281 Z M 35.996094 27.988281 L 35.996094 30.009766 L 37.998047 30.009766 L 37.998047 27.988281 Z M 40.019531 27.988281 L 40.019531 30.009766 L 41.982422 30.009766 L 41.982422 27.988281 Z M 19.013672 30 L 30.996094 30 L 30.996094 44.003906 L 25.996094 44.003906 L 25.996094 40 L 24.003906 40 L 24.003906 44.003906 L 19.042969 44.003906 Z M 7.998047 32.001953 L 7.998047 34.013672 L 10.039062 34.013672 L 10.039062 32.001953 Z M 12.041016 32.001953 L 12.041016 34.013672 L 14.003906 34.013672 L 14.003906 32.001953 Z M 22.001953 32.001953 L 22.001953 34.013672 L 24.003906 34.013672 L 24.003906 32.001953 Z M 25.996094 32.001953 L 25.996094 34.013672 L 27.998047 34.013672 L 27.998047 32.001953 Z M 35.996094 32.001953 L 35.996094 34.013672 L 37.998047 34.013672 L 37.998047 32.001953 Z M 40.019531 32.001953 L 40.019531 34.013672 L 41.982422 34.013672 L 41.982422 32.001953 Z M 22.001953 35.986328 L 22.001953 37.998047 L 24.003906 37.998047 L 24.003906 35.986328 Z M 25.996094 35.986328 L 25.996094 37.998047 L 27.998047 37.998047 L 27.998047 35.986328 Z M 35.996094 35.986328 L 35.996094 37.998047 L 37.998047 37.998047 L 37.998047 35.986328 Z M 40.019531 35.986328 L 40.019531 37.998047 L 41.982422 37.998047 L 41.982422 35.986328 Z M 40.019531 35.986328 " transform="matrix(0.4,0,0,0.4,0,0)"/>
</g>
</svg>
