<svg width="18" height="19" viewBox="0 0 18 19" fill="none" xmlns="http://www.w3.org/2000/svg">
<path d="M12.885 14C14.685 14 15.135 12.9875 15.135 11.75V7.25C15.135 6.0125 14.685 5 12.885 5C11.085 5 10.635 6.0125 10.635 7.25V11.75C10.635 12.9875 11.085 14 12.885 14Z" stroke="#3D5BF6" stroke-width="1.2" stroke-linecap="round" stroke-linejoin="round"/>
<path d="M5.11499 14C3.31499 14 2.86499 12.9875 2.86499 11.75V7.25C2.86499 6.0125 3.31499 5 5.11499 5C6.91499 5 7.36499 6.0125 7.36499 7.25V11.75C7.36499 12.9875 6.91499 14 5.11499 14Z" stroke="#3D5BF6" stroke-width="1.2" stroke-linecap="round" stroke-linejoin="round"/>
<path d="M7.36499 9.5H10.635" stroke="#3D5BF6" stroke-width="1.2" stroke-linecap="round" stroke-linejoin="round"/>
<path d="M16.875 11.375V7.625" stroke="#3D5BF6" stroke-width="1.2" stroke-linecap="round" stroke-linejoin="round"/>
<path d="M1.125 11.375V7.625" stroke="#3D5BF6" stroke-width="1.2" stroke-linecap="round" stroke-linejoin="round"/>
</svg>
