<svg width="25" height="24" viewBox="0 0 25 24" fill="none" xmlns="http://www.w3.org/2000/svg">
<path d="M17.6797 18C20.0797 18 20.6797 16.65 20.6797 15V9C20.6797 7.35 20.0797 6 17.6797 6C15.2797 6 14.6797 7.35 14.6797 9V15C14.6797 16.65 15.2797 18 17.6797 18Z" stroke="white" stroke-width="1.5" stroke-linecap="round" stroke-linejoin="round"/>
<path d="M7.32031 18C4.92031 18 4.32031 16.65 4.32031 15V9C4.32031 7.35 4.92031 6 7.32031 6C9.72031 6 10.3203 7.35 10.3203 9V15C10.3203 16.65 9.72031 18 7.32031 18Z" stroke="white" stroke-width="1.5" stroke-linecap="round" stroke-linejoin="round"/>
<path d="M10.3203 12H14.6803" stroke="white" stroke-width="1.5" stroke-linecap="round" stroke-linejoin="round"/>
<path d="M23 14.5V9.5" stroke="white" stroke-width="1.5" stroke-linecap="round" stroke-linejoin="round"/>
<path d="M2 14.5V9.5" stroke="white" stroke-width="1.5" stroke-linecap="round" stroke-linejoin="round"/>
</svg>
