<svg width="25" height="24" viewBox="0 0 25 24" fill="none" xmlns="http://www.w3.org/2000/svg">
<path d="M17.6799 18C20.0799 18 20.6799 16.65 20.6799 15V9C20.6799 7.35 20.0799 6 17.6799 6C15.2799 6 14.6799 7.35 14.6799 9V15C14.6799 16.65 15.2799 18 17.6799 18Z" stroke="#151B33" stroke-width="1.5" stroke-linecap="round" stroke-linejoin="round"/>
<path d="M7.32007 18C4.92007 18 4.32007 16.65 4.32007 15V9C4.32007 7.35 4.92007 6 7.32007 6C9.72007 6 10.3201 7.35 10.3201 9V15C10.3201 16.65 9.72007 18 7.32007 18Z" stroke="#151B33" stroke-width="1.5" stroke-linecap="round" stroke-linejoin="round"/>
<path d="M10.3201 12H14.6801" stroke="#151B33" stroke-width="1.5" stroke-linecap="round" stroke-linejoin="round"/>
<path d="M23 14.5V9.5" stroke="#151B33" stroke-width="1.5" stroke-linecap="round" stroke-linejoin="round"/>
<path d="M2 14.5V9.5" stroke="#151B33" stroke-width="1.5" stroke-linecap="round" stroke-linejoin="round"/>
</svg>
