<svg width="32" height="32" viewBox="0 0 32 32" fill="none" xmlns="http://www.w3.org/2000/svg">
<rect width="32" height="32" rx="16" fill="#3D5BF6"/>
<g clip-path="url(#clip0_288_34425)">
<path d="M22.4648 13.3375C21.6773 9.8725 18.6548 8.3125 15.9998 8.3125C15.9998 8.3125 15.9998 8.3125 15.9923 8.3125C13.3448 8.3125 10.3148 9.865 9.52733 13.33C8.64983 17.2 11.0198 20.4775 13.1648 22.54C13.9598 23.305 14.9798 23.6875 15.9998 23.6875C17.0198 23.6875 18.0398 23.305 18.8273 22.54C20.9723 20.4775 23.3423 17.2075 22.4648 13.3375ZM15.9998 17.095C14.6948 17.095 13.6373 16.0375 13.6373 14.7325C13.6373 13.4275 14.6948 12.37 15.9998 12.37C17.3048 12.37 18.3623 13.4275 18.3623 14.7325C18.3623 16.0375 17.3048 17.095 15.9998 17.095Z" fill="white"/>
</g>
<defs>
<clipPath id="clip0_288_34425">
<rect width="18" height="18" fill="white" transform="translate(7 7)"/>
</clipPath>
</defs>
</svg>
