<svg width="327" height="327" viewBox="0 0 327 327" fill="none" xmlns="http://www.w3.org/2000/svg">
<rect opacity="0.2" width="327" height="327" rx="163.5" fill="#9FB6FA"/>
<rect x="141" y="141" width="44" height="44" rx="22" fill="#3F6DF6"/>
<g clip-path="url(#clip0_130_3282)">
<path d="M171.62 159.45C170.57 154.83 166.54 152.75 163 152.75C163 152.75 163 152.75 162.99 152.75C159.46 152.75 155.42 154.82 154.37 159.44C153.2 164.6 156.36 168.97 159.22 171.72C160.28 172.74 161.64 173.25 163 173.25C164.36 173.25 165.72 172.74 166.77 171.72C169.63 168.97 172.79 164.61 171.62 159.45ZM163 164.46C161.26 164.46 159.85 163.05 159.85 161.31C159.85 159.57 161.26 158.16 163 158.16C164.74 158.16 166.15 159.57 166.15 161.31C166.15 163.05 164.74 164.46 163 164.46Z" fill="white"/>
</g>
<defs>
<clipPath id="clip0_130_3282">
<rect width="24" height="24" fill="white" transform="translate(151 151)"/>
</clipPath>
</defs>
</svg>
