<svg width="16" height="16" viewBox="0 0 16 16" fill="none" xmlns="http://www.w3.org/2000/svg">
<path d="M5.08637 2.37995C5.20596 2.31472 5.33303 2.41508 5.33303 2.5513V11.5732C5.33303 11.7311 5.22496 11.8644 5.08637 11.94L3.5197 12.8333C2.42637 13.46 1.52637 12.94 1.52637 11.6733V5.18662C1.52637 4.76662 1.82637 4.24662 2.1997 4.03329L5.08637 2.37995Z" fill="#151B33"/>
<path d="M9.7219 4.02236C9.89223 4.10672 10 4.28035 10 4.47043V12.8704C10 13.2389 9.61495 13.4808 9.28298 13.3209L6.78298 12.1164C6.60998 12.0331 6.5 11.858 6.5 11.666V3.23233C6.5 2.86147 6.88956 2.61968 7.2219 2.78427L9.7219 4.02236Z" fill="#151B33"/>
<path d="M14.667 4.32655V10.8132C14.667 11.2332 14.367 11.7532 13.9937 11.9665L11.9156 13.1575C11.5823 13.3485 11.167 13.1079 11.167 12.7237V4.31687C11.167 4.13735 11.2632 3.97162 11.4191 3.88263L12.6737 3.16655C13.767 2.53988 14.667 3.05988 14.667 4.32655Z" fill="#151B33"/>
</svg>
