<?xml version="1.0" encoding="UTF-8"?>
<svg xmlns="http://www.w3.org/2000/svg" xmlns:xlink="http://www.w3.org/1999/xlink" width="20px" height="20px" viewBox="0 0 20 20" version="1.1">
<g id="surface1">
<path style="fill-rule:nonzero;fill:rgb(65.490196%,68.235294%,75.686275%);fill-opacity:1;stroke-width:1;stroke-linecap:butt;stroke-linejoin:miter;stroke:rgb(65.490196%,68.235294%,75.686275%);stroke-opacity:1;stroke-miterlimit:4;" d="M 267.8 171 C 255.5 158.7 240.4 148.9 223.7 142.5 C 215.9 151.3 210.5 162 208.2 173.5 C 207.6 176.6 207.3 179.8 207.1 182.9 C 208.5 183.4 209.8 183.9 211.1 184.4 C 225.7 190.6 238.2 200.9 246.9 214 C 254 224.4 258.6 236.4 260.2 249.5 C 260.6 252.7 260.8 256 260.8 259.4 C 260.8 270.7 258.5 281.4 254.4 291.1 C 249.3 303.1 241.5 313.7 231.6 321.9 C 229.4 323.7 227.2 325.4 224.9 326.9 C 211.9 335.7 196.4 340.8 179.4 340.8 C 168.2 340.8 157.5 338.5 147.8 334.4 C 133.2 328.2 120.8 317.9 112 304.9 C 103.2 291.9 98.1 276.3 98.1 259.4 C 98.1 248.1 100.4 237.5 104.5 227.7 C 110 214.7 119 203.3 130.2 194.7 C 130 191.8 129.9 188.8 129.9 185.9 C 129.9 170.7 132.2 155.9 136.8 141.9 C 119.4 148.2 103.9 158.3 91.1 171 C 68.5 193.6 54.5 225 54.5 259.4 C 54.5 293.9 68.5 325.3 91.1 347.8 C 109.9 366.7 134.9 379.5 162.7 383.2 L 162.7 422.2 L 104.8 422.2 L 104.8 455.7 L 162.7 455.7 L 162.7 512 L 196.2 512 L 196.2 455.7 L 254.2 455.7 L 254.2 422.2 L 196.2 422.2 L 196.2 383.2 C 224 379.5 249 366.7 267.8 347.8 C 274.1 341.5 279.7 334.6 284.6 327.1 C 297.2 307.6 304.5 284.3 304.4 259.4 C 304.4 253.6 304 247.8 303.3 242.2 C 299.4 214.6 286.6 189.8 267.8 171 Z M 267.8 171 " transform="matrix(0.0390625,0,0,0.0390625,0,0)"/>
<path style="fill-rule:nonzero;fill:rgb(65.490196%,68.235294%,75.686275%);fill-opacity:1;stroke-width:1;stroke-linecap:butt;stroke-linejoin:miter;stroke:rgb(65.490196%,68.235294%,75.686275%);stroke-opacity:1;stroke-miterlimit:4;" d="M 349 0 L 349 33.6 L 400.2 33.6 L 347.3 86.5 C 325 69.5 298.3 60.9 271.6 60.9 C 239.7 60.9 207.6 73.1 183.2 97.5 C 165.8 114.9 154.6 136.3 149.6 158.7 C 149.6 158.9 149.5 159.2 149.4 159.4 C 149.3 160.3 149.1 161.2 148.9 162 C 148.6 163.6 148.3 165.2 148.1 166.9 C 147.9 167.8 147.8 168.8 147.7 169.8 C 147.5 171.3 147.3 172.8 147.2 174.3 C 147.1 175.2 147 176 147 176.9 C 146.9 177.4 146.9 177.8 146.9 178.3 C 146.8 179.1 146.8 180 146.7 180.9 C 146.7 182.6 146.6 184.2 146.6 185.9 C 146.6 187.2 146.7 188.4 146.7 189.7 C 146.8 191 146.8 192.3 146.9 193.6 L 147.1 196.4 C 147.1 196.9 147.2 197.4 147.2 197.9 C 149.9 225.7 161.9 253 183.2 274.3 C 196.2 287.2 211.3 296.7 227.3 302.8 C 232.2 297.4 236.2 291.2 239 284.5 C 242 277.5 243.6 270.1 244 262.4 C 233.1 258.5 222.9 252.2 214.1 243.4 C 206.1 235.4 200.2 226.3 196.2 216.5 C 193.4 209.6 191.6 202.3 190.8 195 C 190.3 190.7 190.2 186.3 190.4 182 C 190.4 180.9 190.5 179.9 190.6 178.9 C 190.6 178.1 190.7 177.3 190.8 176.5 C 190.8 176.2 190.9 175.9 190.9 175.6 C 191 174.9 191.1 174.1 191.2 173.4 C 191.4 172.4 191.6 171.3 191.8 170.3 C 192.6 165.8 193.9 161.3 195.6 156.9 C 195.9 156.1 196.2 155.3 196.6 154.5 C 196.9 153.7 197.3 152.9 197.7 152 C 198 151.2 198.4 150.3 198.8 149.5 C 199.2 148.7 199.6 147.9 200.1 147.1 C 202.3 143 204.9 139 207.9 135.3 C 208.5 134.5 209.2 133.7 209.8 133 C 211.2 131.4 212.6 129.9 214.1 128.4 C 216 126.5 217.9 124.7 219.9 123.1 C 226.4 117.7 233.5 113.5 241 110.5 C 255.6 104.5 271.8 103 287.2 106 C 302.6 109 317.2 116.4 329.2 128.4 C 337.1 136.4 343 145.5 347 155.3 C 353 169.9 354.5 186 351.5 201.4 C 348.5 216.8 341.1 231.4 329.2 243.4 C 326.5 246 323.8 248.5 320.9 250.6 C 321.1 253.6 321.2 256.5 321.2 259.4 C 321.2 274.5 318.9 289.3 314.3 303.4 C 331 297.3 346.6 287.6 360 274.3 C 384.4 249.9 396.6 217.8 396.6 185.9 C 396.6 159.2 388 132.5 371 110.2 L 423.9 57.3 L 423.9 108.5 L 457.5 108.5 L 457.5 0 Z M 349 0 " transform="matrix(0.0390625,0,0,0.0390625,0,0)"/>
</g>
</svg>
