<svg width="23" height="22" viewBox="0 0 23 22" fill="none" xmlns="http://www.w3.org/2000/svg">
<path d="M11.4999 1.83331C6.44909 1.83331 2.33325 5.94915 2.33325 11C2.33325 16.0508 6.44909 20.1666 11.4999 20.1666C16.5508 20.1666 20.6666 16.0508 20.6666 11C20.6666 5.94915 16.5508 1.83331 11.4999 1.83331ZM10.8124 7.33331C10.8124 6.95748 11.1241 6.64581 11.4999 6.64581C11.8758 6.64581 12.1874 6.95748 12.1874 7.33331V11.9166C12.1874 12.2925 11.8758 12.6041 11.4999 12.6041C11.1241 12.6041 10.8124 12.2925 10.8124 11.9166V7.33331ZM12.3433 15.015C12.2974 15.1341 12.2333 15.2258 12.1508 15.3175C12.0591 15.4 11.9583 15.4641 11.8483 15.51C11.7383 15.5558 11.6191 15.5833 11.4999 15.5833C11.3808 15.5833 11.2616 15.5558 11.1516 15.51C11.0416 15.4641 10.9408 15.4 10.8491 15.3175C10.7666 15.2258 10.7024 15.1341 10.6566 15.015C10.6108 14.905 10.5833 14.7858 10.5833 14.6666C10.5833 14.5475 10.6108 14.4283 10.6566 14.3183C10.7024 14.2083 10.7666 14.1075 10.8491 14.0158C10.9408 13.9333 11.0416 13.8691 11.1516 13.8233C11.3716 13.7316 11.6283 13.7316 11.8483 13.8233C11.9583 13.8691 12.0591 13.9333 12.1508 14.0158C12.2333 14.1075 12.2974 14.2083 12.3433 14.3183C12.3891 14.4283 12.4166 14.5475 12.4166 14.6666C12.4166 14.7858 12.3891 14.905 12.3433 15.015Z" fill="white"/>
</svg>
