<svg width="23" height="22" viewBox="0 0 23 22" fill="none" xmlns="http://www.w3.org/2000/svg">
<path d="M20.2358 9.9642L18.8425 8.57087C18.6041 8.33253 18.4116 7.86504 18.4116 7.53503V5.55503C18.4116 4.74837 17.7516 4.08837 16.945 4.08837H14.9741C14.6441 4.08837 14.1766 3.89587 13.9383 3.65753L12.545 2.2642C11.9766 1.69587 11.0416 1.69587 10.4733 2.2642L9.06164 3.65753C8.83247 3.89587 8.36497 4.08837 8.02581 4.08837H6.05497C5.24831 4.08837 4.58831 4.74837 4.58831 5.55503V7.52587C4.58831 7.85587 4.39581 8.32337 4.15747 8.5617L2.76414 9.95503C2.19581 10.5234 2.19581 11.4584 2.76414 12.0267L4.15747 13.42C4.39581 13.6584 4.58831 14.1259 4.58831 14.4559V16.4267C4.58831 17.2334 5.24831 17.8934 6.05497 17.8934H8.02581C8.35581 17.8934 8.82331 18.0859 9.06164 18.3242L10.455 19.7175C11.0233 20.2859 11.9583 20.2859 12.5266 19.7175L13.92 18.3242C14.1583 18.0859 14.6258 17.8934 14.9558 17.8934H16.9266C17.7333 17.8934 18.3933 17.2334 18.3933 16.4267V14.4559C18.3933 14.1259 18.5858 13.6584 18.8241 13.42L20.2175 12.0267C20.8133 11.4675 20.8133 10.5325 20.2358 9.9642ZM7.83331 8.25003C7.83331 7.74587 8.24581 7.33337 8.74997 7.33337C9.25414 7.33337 9.66664 7.74587 9.66664 8.25003C9.66664 8.7542 9.26331 9.1667 8.74997 9.1667C8.24581 9.1667 7.83331 8.7542 7.83331 8.25003ZM9.23581 14.2359C9.09831 14.3734 8.92414 14.4375 8.74997 14.4375C8.57581 14.4375 8.40164 14.3734 8.26414 14.2359C7.99831 13.97 7.99831 13.53 8.26414 13.2642L13.7641 7.7642C14.03 7.49837 14.47 7.49837 14.7358 7.7642C15.0016 8.03004 15.0016 8.47003 14.7358 8.73587L9.23581 14.2359ZM14.25 14.6667C13.7366 14.6667 13.3241 14.2542 13.3241 13.75C13.3241 13.2459 13.7366 12.8334 14.2408 12.8334C14.745 12.8334 15.1575 13.2459 15.1575 13.75C15.1575 14.2542 14.7541 14.6667 14.25 14.6667Z" fill="white"/>
</svg>
