<svg width="40" height="14" viewBox="0 0 40 14" fill="none" xmlns="http://www.w3.org/2000/svg">
<path fill-rule="evenodd" clip-rule="evenodd" d="M10.0004 13.0391H6.53867L3.94278 2.84437C3.81957 2.37542 3.55796 1.96083 3.17313 1.76543C2.21275 1.27438 1.15448 0.883585 0 0.686486V0.293989H5.57661C6.34626 0.293989 6.9235 0.883585 7.0197 1.56833L8.3666 8.92214L11.8267 0.293989H15.1922L10.0004 13.0391ZM17.116 13.0391H13.8467L16.5388 0.293989H19.8081L17.116 13.0391ZM24.0378 3.82472C24.1341 3.13828 24.7113 2.74578 25.3847 2.74578C26.443 2.64723 27.5958 2.84433 28.5579 3.33368L29.1351 0.58959C28.173 0.197093 27.1148 -5.82283e-06 26.1544 -5.82283e-06C22.9813 -5.82283e-06 20.6723 1.76538 20.6723 4.21552C20.6723 6.07946 22.3078 7.05816 23.4623 7.64775C24.7113 8.23565 25.1923 8.62815 25.0961 9.21604C25.0961 10.0979 24.1341 10.4904 23.1737 10.4904C22.0192 10.4904 20.8647 10.1964 19.8081 9.70539L19.2309 12.4512C20.3854 12.9405 21.6344 13.1376 22.7888 13.1376C26.3468 13.2345 28.5579 11.4708 28.5579 8.82355C28.5579 5.48986 24.0378 5.29446 24.0378 3.82472ZM40.0003 13.0391L37.4044 0.293989H34.6161C34.0389 0.293989 33.4617 0.686486 33.2692 1.27438L28.4623 13.0391H31.8278L32.4996 11.1769H36.6348L37.0196 13.0391H40.0003ZM35.0965 3.72611L36.0569 8.52954H33.3648L35.0965 3.72611Z" fill="#172B85"/>
</svg>
