<svg width="20" height="21" viewBox="0 0 20 21" fill="none" xmlns="http://www.w3.org/2000/svg">
<path d="M12.1083 8.39166L7.8916 12.6083C7.34994 12.0667 7.0166 11.325 7.0166 10.5C7.0166 8.85 8.34994 7.51666 9.99994 7.51666C10.8249 7.51666 11.5666 7.85 12.1083 8.39166Z" stroke="#8A8D99" stroke-width="1.5" stroke-linecap="round" stroke-linejoin="round"/>
<path d="M14.8499 5.30834C13.3915 4.20834 11.7249 3.60834 9.99987 3.60834C7.0582 3.60834 4.31654 5.34167 2.4082 8.34167C1.6582 9.51667 1.6582 11.4917 2.4082 12.6667C3.06654 13.7 3.8332 14.5917 4.66654 15.3083" stroke="#8A8D99" stroke-width="1.5" stroke-linecap="round" stroke-linejoin="round"/>
<path d="M7.0166 16.775C7.9666 17.175 8.97493 17.3917 9.99993 17.3917C12.9416 17.3917 15.6833 15.6583 17.5916 12.6583C18.3416 11.4833 18.3416 9.50834 17.5916 8.33334C17.3166 7.9 17.0166 7.49167 16.7083 7.10834" stroke="#8A8D99" stroke-width="1.5" stroke-linecap="round" stroke-linejoin="round"/>
<path d="M12.9252 11.0833C12.7085 12.2583 11.7502 13.2166 10.5752 13.4333" stroke="#8A8D99" stroke-width="1.5" stroke-linecap="round" stroke-linejoin="round"/>
<path d="M7.89199 12.6083L1.66699 18.8333" stroke="#8A8D99" stroke-width="1.5" stroke-linecap="round" stroke-linejoin="round"/>
<path d="M18.3334 2.16669L12.1084 8.39169" stroke="#8A8D99" stroke-width="1.5" stroke-linecap="round" stroke-linejoin="round"/>
</svg>
