<svg width="20" height="21" viewBox="0 0 20 21" fill="none" xmlns="http://www.w3.org/2000/svg">
<path d="M12.1083 8.39166L7.8916 12.6083C7.34994 12.0667 7.0166 11.325 7.0166 10.5C7.0166 8.85 8.34994 7.51666 9.99994 7.51666C10.8249 7.51666 11.5666 7.85 12.1083 8.39166Z" stroke="#A7AEC1" stroke-width="1.5" stroke-linecap="round" stroke-linejoin="round"/>
<path d="M14.8501 5.30834C13.3918 4.20834 11.7251 3.60834 10.0001 3.60834C7.05845 3.60834 4.31678 5.34167 2.40845 8.34167C1.65845 9.51667 1.65845 11.4917 2.40845 12.6667C3.06678 13.7 3.83345 14.5917 4.66678 15.3083" stroke="#A7AEC1" stroke-width="1.5" stroke-linecap="round" stroke-linejoin="round"/>
<path d="M7.0166 16.775C7.9666 17.175 8.97493 17.3917 9.99993 17.3917C12.9416 17.3917 15.6833 15.6583 17.5916 12.6583C18.3416 11.4833 18.3416 9.50834 17.5916 8.33334C17.3166 7.9 17.0166 7.49167 16.7083 7.10834" stroke="#A7AEC1" stroke-width="1.5" stroke-linecap="round" stroke-linejoin="round"/>
<path d="M12.925 11.0833C12.7083 12.2583 11.75 13.2166 10.575 13.4333" stroke="#A7AEC1" stroke-width="1.5" stroke-linecap="round" stroke-linejoin="round"/>
<path d="M7.89175 12.6083L1.66675 18.8333" stroke="#A7AEC1" stroke-width="1.5" stroke-linecap="round" stroke-linejoin="round"/>
<path d="M18.3334 2.16669L12.1084 8.39169" stroke="#A7AEC1" stroke-width="1.5" stroke-linecap="round" stroke-linejoin="round"/>
</svg>
